HIERARCHY
ROOT Hips
{
	OFFSET 0.000000 0.000000 0.000000
	CHANNELS 6 Xposition Yposition Zposition Xrotation Yrotation Zrotation
	JOINT LeftUpLeg_virtual
	{
		OFFSET 0.000000 0.000000 0.000000
		CHANNELS 3 Xrotation Yrotation Zrotation
		JOINT LeftUpLeg
		{
			OFFSET 15.427100 -6.655098 0.678600
			CHANNELS 3 Xrotation Yrotation Zrotation
			JOINT LeftLeg
			{
				OFFSET 4.081073 -39.591068 13.024000
				CHANNELS 3 Xrotation Yrotation Zrotation
				JOINT LeftFoot
				{
					OFFSET -4.081074 -37.707932 -15.979700
					CHANNELS 3 Xrotation Yrotation Zrotation
					JOINT LeftToeBase
					{
						OFFSET 5.346399 -15.068900 20.645000
						CHANNELS 3 Xrotation Yrotation Zrotation
						JOINT LeftToe_End
						{
							OFFSET 2.754700 0.931300 11.300900
							CHANNELS 3 Xrotation Yrotation Zrotation
							End Site
							{
								OFFSET 0 0 0
							}
						}
					}
				}
			}
		}
	}
	JOINT RightUpLeg_virtual
	{
		OFFSET 0.000000 0.000000 0.000000
		CHANNELS 3 Xrotation Yrotation Zrotation
		JOINT RightUpLeg
		{
			OFFSET -15.569500 -6.655098 0.678600
			CHANNELS 3 Xrotation Yrotation Zrotation
			JOINT RightLeg
			{
				OFFSET -4.081825 -39.591045 13.023800
				CHANNELS 3 Xrotation Yrotation Zrotation
				JOINT RightFoot
				{
					OFFSET 4.081824 -37.707954 -15.979600
					CHANNELS 3 Xrotation Yrotation Zrotation
					JOINT RightToeBase
					{
						OFFSET -5.346400 -15.068900 20.645000
						CHANNELS 3 Xrotation Yrotation Zrotation
						JOINT RightToe_End
						{
							OFFSET -2.754700 0.931300 11.300900
							CHANNELS 3 Xrotation Yrotation Zrotation
							End Site
							{
								OFFSET 0 0 0
							}
						}
					}
				}
			}
		}
	}
	JOINT Spine_virtual
	{
		OFFSET 0.000000 0.000000 0.000000
		CHANNELS 3 Xrotation Yrotation Zrotation
		JOINT Spine
		{
			OFFSET -0.279200 12.230698 -2.892100
			CHANNELS 3 Xrotation Yrotation Zrotation
			JOINT Spine1
			{
				OFFSET -0.232667 10.192268 -1.242267
				CHANNELS 3 Xrotation Yrotation Zrotation
				JOINT Spine1_split
				{
					OFFSET -0.232667 10.192268 -1.242267
					CHANNELS 3 Xrotation Yrotation Zrotation
					JOINT Spine2
					{
						OFFSET -0.232667 10.192268 -1.242267
						CHANNELS 3 Xrotation Yrotation Zrotation
						JOINT Neck_virtual
						{
							OFFSET 0.000000 0.000000 0.000000
							CHANNELS 3 Xrotation Yrotation Zrotation
							JOINT Neck
							{
								OFFSET -0.418800 17.814194 8.416900
								CHANNELS 3 Xrotation Yrotation Zrotation
								JOINT Head
								{
									OFFSET 0.000000 7.031097 3.806800
									CHANNELS 3 Xrotation Yrotation Zrotation
									JOINT HeadTop_End
									{
										OFFSET 0.000000 24.646606 12.978600
										CHANNELS 3 Xrotation Yrotation Zrotation
										End Site
										{
											OFFSET 0 0 0
										}
									}
								}
							}
						}
						JOINT LeftShoulder_virtual
						{
							OFFSET 0.000000 0.000000 0.000000
							CHANNELS 3 Xrotation Yrotation Zrotation
							JOINT LeftShoulder
							{
								OFFSET 8.476499 7.247704 -3.868750
								CHANNELS 3 Xrotation Yrotation Zrotation
								JOINT LeftShoulder_split
								{
									OFFSET 8.476499 7.247704 -3.868750
									CHANNELS 3 Xrotation Yrotation Zrotation
									JOINT LeftArm
									{
										OFFSET 9.308998 -2.777710 0.208600
										CHANNELS 3 Xrotation Yrotation Zrotation
										JOINT LeftForeArm
										{
											OFFSET 29.972298 0.000000 0.000000
											CHANNELS 3 Xrotation Yrotation Zrotation
											JOINT LeftHand
											{
												OFFSET 26.026505 0.000000 0.000000
												CHANNELS 3 Xrotation Yrotation Zrotation
												End Site
												{
													OFFSET 0 0 0
												}
											}
										}
									}
								}
							}
						}
						JOINT RightShoulder_virtual
						{
							OFFSET 0.000000 0.000000 0.000000
							CHANNELS 3 Xrotation Yrotation Zrotation
							JOINT RightShoulder
							{
								OFFSET -7.570500 7.247704 -3.868750
								CHANNELS 3 Xrotation Yrotation Zrotation
								JOINT RightShoulder_split
								{
									OFFSET -7.570500 7.247704 -3.868750
									CHANNELS 3 Xrotation Yrotation Zrotation
									JOINT RightArm
									{
										OFFSET -9.308998 -2.777710 0.208500
										CHANNELS 3 Xrotation Yrotation Zrotation
										JOINT RightForeArm
										{
											OFFSET -29.972300 0.000000 0.000000
											CHANNELS 3 Xrotation Yrotation Zrotation
											JOINT RightHand
											{
												OFFSET -26.026505 0.000000 0.000000
												CHANNELS 3 Xrotation Yrotation Zrotation
												End Site
												{
													OFFSET 0 0 0
												}
											}
										}
									}
								}
							}
						}
					}
				}
			}
		}
	}
}
MOTION
Frames: 9
Frame Time: 0.03333333
2.937833 88.544952 -56.736740 0.000000 0.000000 0.000000 173.132373 -62.701533 173.306720 -22.738586 13.392296 23.975383 36.153957 -6.722275 -6.964570 -14.745572 6.722425 -3.306806 4.919145 0.958965 -3.426647 0.000000 0.000000 0.000000 172.195530 -63.418559 171.791730 -8.682825 -0.585417 5.957787 27.385896 2.094794 5.724834 -23.148918 -2.802623 -6.916945 -1.537195 -2.084531 -8.742413 0.000000 0.000000 0.000000 173.044523 -65.314572 171.807330 2.204305 6.254073 1.729173 -2.398524 2.354649 -2.724220 0.133394 -0.541943 0.019071 0.000000 0.000000 0.000000 0.962171 3.373915 -1.951762 -6.197819 16.228277 9.557533 -16.554389 4.838144 1.712151 0.000000 0.000000 0.000000 -1.057284 0.994120 -2.202995 2.937163 3.812854 6.024642 0.781927 -0.067301 1.587556 -11.148398 8.235893 -72.511891 18.248841 -12.655774 1.333275 0.000000 0.000000 0.000000 -3.976911 1.147241 -0.108846 -0.638363 -14.644673 18.343009 -20.763504 -9.368812 -5.495432 16.197094 43.016767 46.619299 12.306041 26.167343 1.827500 0.000000 0.000000 0.000000 
2.672782 89.075340 -58.562210 0.000000 0.000000 0.000000 173.964727 -57.375522 174.997014 -22.865105 8.476494 19.338847 36.121244 -6.848425 -5.531266 -12.782442 7.016173 -5.183192 3.964180 1.151787 -4.087216 0.000000 0.000000 0.000000 172.753188 -58.969449 173.306324 -8.419932 3.058519 6.245810 25.859400 4.153040 4.957393 -22.016331 -2.648035 -8.805108 -3.145035 -2.495514 -6.353305 0.000000 0.000000 0.000000 174.576466 -60.138846 174.489572 2.311338 7.092747 2.040103 -2.050527 2.756505 -2.753918 0.108131 -0.592327 0.016823 0.000000 0.000000 0.000000 1.808988 3.748277 -2.210947 -5.768377 15.768743 9.131108 -17.254965 4.215538 3.002639 0.000000 0.000000 0.000000 -0.390251 1.292213 -2.159767 2.373840 2.518285 4.956989 1.216677 0.285022 1.660464 -8.867936 8.580419 -72.976910 17.901236 -11.946067 0.322874 0.000000 0.000000 0.000000 -3.755670 1.412068 -0.174394 -0.852896 -14.627945 18.347790 -19.644734 -8.785082 -5.481897 15.026587 43.950085 46.511734 12.546483 27.042619 1.355622 0.000000 0.000000 0.000000 
2.149177 89.660080 -60.219704 0.000000 0.000000 0.000000 174.170616 -52.098108 176.014426 -23.957698 3.787618 14.523719 34.515698 -6.881882 -3.455411 -9.996486 7.057157 -7.993837 1.842086 1.346407 -4.543547 0.000000 0.000000 0.000000 172.920746 -54.925895 174.395889 -7.861480 6.098965 6.573616 24.497356 6.102545 4.272306 -21.165151 -2.481086 -11.128365 -4.439734 -2.799275 -4.017297 0.000000 0.000000 0.000000 175.317569 -54.987968 176.361317 2.314848 7.846631 2.213281 -1.624462 3.085607 -2.691685 0.082298 -0.593715 0.024147 0.000000 0.000000 0.000000 2.782107 4.091143 -2.395854 -5.418157 15.576330 8.633034 -17.719158 3.601192 4.286529 0.000000 0.000000 0.000000 0.361824 1.558446 -1.995422 1.769252 1.356382 3.937750 1.276408 0.088326 1.464678 -6.226746 8.529547 -73.413530 16.801748 -10.941972 -1.024544 0.000000 0.000000 0.000000 -3.378116 1.639949 -0.196485 -1.120267 -14.338669 18.209038 -18.213461 -8.407672 -5.022276 13.294155 45.253237 46.711794 12.265953 27.130136 1.093645 0.000000 0.000000 0.000000 
1.442824 90.123116 -61.909454 0.000000 0.000000 0.000000 174.301428 -46.995779 176.815047 -25.947498 -0.024822 10.108484 32.084756 -6.686791 -1.114543 -7.091408 6.975684 -11.218873 -0.404228 1.541869 -4.915274 0.000000 0.000000 0.000000 173.235768 -51.002204 175.428163 -6.999758 8.262027 7.118032 23.834787 7.787066 3.587595 -21.083725 -2.073195 -14.293987 -4.897368 -2.885526 -2.132592 0.000000 0.000000 0.000000 175.819205 -49.866156 177.631036 2.418921 8.556779 2.321065 -1.169164 3.295356 -2.529056 0.047044 -0.582137 0.049594 0.000000 0.000000 0.000000 3.796522 4.360680 -2.466731 -5.113838 15.610471 8.183941 -18.021475 2.996147 5.666949 0.000000 0.000000 0.000000 1.123841 1.778317 -1.711773 1.187798 0.513596 3.126099 1.206387 -0.090202 0.948593 -3.393707 8.547918 -74.190840 15.270700 -10.217591 -2.385960 0.000000 0.000000 0.000000 -2.819724 1.813836 -0.185051 -1.375899 -13.589283 18.109613 -16.699474 -8.167675 -4.451077 11.079281 46.833753 47.427556 11.498515 26.722618 1.070823 0.000000 0.000000 0.000000 
0.517525 90.363235 -63.544930 0.000000 0.000000 0.000000 174.565715 -42.221610 177.499418 -28.753782 -2.543848 6.726607 30.042874 -6.270048 1.186347 -4.329316 6.796772 -14.549411 -1.312743 1.637285 -5.163740 0.000000 0.000000 0.000000 173.779957 -46.981917 176.300010 -5.857493 9.492201 7.670806 24.119039 9.322054 2.996380 -21.752501 -1.104431 -17.920934 -5.226118 -2.643229 -1.271651 0.000000 0.000000 0.000000 176.437269 -44.990016 178.476381 2.859579 9.221562 2.467700 -0.693336 3.395987 -2.293504 0.061552 -0.576734 0.044680 0.000000 0.000000 0.000000 4.764824 4.540332 -2.407464 -5.009313 15.824645 7.969295 -18.588314 2.529487 7.016213 0.000000 0.000000 0.000000 1.856088 1.966455 -1.370158 0.640828 0.147761 2.479627 1.309351 -0.467420 0.066000 -0.556453 8.941464 -75.547575 13.740955 -10.405100 -3.403620 0.000000 0.000000 0.000000 -2.121898 1.922096 -0.148585 -1.609064 -12.316082 18.195187 -15.316132 -8.089445 -3.805033 8.747314 48.590037 48.558376 10.342733 26.296751 1.217542 0.000000 0.000000 0.000000 
-0.566237 90.351532 -65.353531 0.000000 0.000000 0.000000 175.192494 -37.878815 178.134011 -31.842718 -3.797350 4.671642 29.085517 -5.685787 3.227294 -1.967998 6.481231 -17.833699 -0.463403 1.538633 -5.023877 0.000000 0.000000 0.000000 174.717059 -42.805496 177.163427 -4.538407 9.825548 8.016588 25.145649 11.083416 2.456986 -22.287379 0.702203 -21.002845 -6.481673 -2.030927 -1.937280 0.000000 0.000000 0.000000 177.458833 -40.555402 179.045759 3.777230 9.773665 2.696387 -0.235347 3.372146 -2.029234 0.116644 -0.702208 0.079371 0.000000 0.000000 0.000000 5.672570 4.625084 -2.209991 -5.205396 16.155957 8.121647 -19.902459 2.128617 8.056738 0.000000 0.000000 0.000000 2.508949 2.111305 -1.044708 0.102985 0.281943 1.910991 1.870138 -0.931072 -0.710960 1.967623 9.773235 -77.537755 12.500710 -11.753430 -3.945788 0.000000 0.000000 0.000000 -1.411185 1.938934 -0.129762 -1.798302 -10.591083 18.514876 -14.307435 -8.326797 -3.316062 6.631791 50.174805 50.094253 8.881528 26.317919 1.482230 0.000000 0.000000 0.000000 
-1.746220 90.230949 -67.467903 0.000000 0.000000 0.000000 176.123326 -34.228824 178.618094 -34.503151 -4.141447 3.798154 29.065149 -4.754966 4.672728 -0.578165 6.107169 -20.530871 0.642200 1.223745 -4.073629 0.000000 0.000000 0.000000 175.848712 -38.787418 177.738461 -3.260800 9.322891 8.022832 26.332645 13.607451 2.073910 -22.144371 3.430116 -22.404581 -8.595607 -1.028435 -4.354325 0.000000 0.000000 0.000000 179.086768 -36.977060 179.511127 5.261808 10.110544 2.921797 0.173983 3.231642 -1.806163 0.175024 -1.029008 0.169199 0.000000 0.000000 0.000000 6.490243 4.617506 -1.896312 -5.715155 16.500287 8.733209 -21.917305 1.906657 8.431355 0.000000 0.000000 0.000000 2.996160 2.195741 -0.830070 -0.485474 0.926844 1.213349 2.947570 -1.531755 -1.282952 3.920999 10.802902 -79.882211 11.788765 -14.120434 -3.999513 0.000000 0.000000 0.000000 -0.807409 1.876085 -0.193675 -1.912280 -8.672244 19.024654 -13.339725 -8.847144 -2.922693 4.796946 51.201762 52.033566 7.226114 26.973049 1.734848 0.000000 0.000000 0.000000 
-2.961724 90.165985 -70.007843 0.000000 0.000000 0.000000 177.202428 -31.220603 178.913267 -35.769267 -4.092753 3.480290 29.302748 -3.140477 5.488689 -0.458383 5.980085 -21.951861 0.725041 0.671863 -2.387470 0.000000 0.000000 0.000000 176.892351 -35.722890 177.827991 -2.048716 8.112034 7.684695 27.317173 17.057043 2.020246 -21.171930 6.776272 -21.837413 -10.924384 0.329881 -8.225503 0.000000 0.000000 0.000000 -178.993249 -34.474164 179.784676 7.208239 10.133132 3.065670 0.430956 3.006801 -1.663557 0.241186 -1.463791 0.278395 0.000000 0.000000 0.000000 7.159769 4.518787 -1.508969 -6.542015 16.771480 9.738610 -24.460463 1.792651 7.862032 0.000000 0.000000 0.000000 3.261084 2.228112 -0.786363 -1.075171 1.880196 0.105546 4.179250 -2.490230 -1.281179 5.315244 11.607083 -81.910320 11.551241 -17.153279 -3.657853 0.000000 0.000000 0.000000 -0.413704 1.724876 -0.390997 -2.020850 -6.762365 19.568656 -12.108843 -9.353821 -2.609515 3.443194 51.618188 54.130438 5.529728 28.252748 1.876859 0.000000 0.000000 0.000000 
-4.071920 90.240479 -73.121521 0.000000 0.000000 0.000000 178.230549 -29.284149 179.018739 -35.789577 -4.138514 3.072497 29.607460 -0.645641 5.425830 -1.201014 6.295669 -21.840510 0.261577 -0.038314 -0.781432 0.000000 0.000000 0.000000 177.786327 -34.171348 177.717206 -0.902160 6.254131 7.231222 27.688427 20.911331 2.225618 -19.632877 10.165912 -19.787060 -12.498906 1.733838 -12.830545 0.000000 0.000000 0.000000 -177.125752 -33.063723 179.754583 9.401015 9.841138 2.987775 0.511738 2.725904 -1.582267 0.254566 -1.911959 0.396459 0.000000 0.000000 0.000000 7.618579 4.348194 -1.052437 -7.487678 16.863983 10.910289 -27.087424 1.627626 6.382611 0.000000 0.000000 0.000000 3.324808 2.218137 -0.888015 -1.542186 2.942176 -1.492220 5.143519 -3.512146 -0.804441 6.273545 11.633022 -82.989462 11.451609 -20.080946 -3.221857 0.000000 0.000000 0.000000 -0.245541 1.502574 -0.690818 -2.117775 -5.081364 19.845169 -10.279949 -9.460819 -2.247978 2.492246 51.405165 56.310316 4.058082 30.002876 1.795535 0.000000 0.000000 0.000000 
